<?xml version="1.0" encoding="UTF-8" standalone="no"?>
<!DOCTYPE svg PUBLIC "-//W3C//DTD SVG 1.1//EN"
 "http://www.w3.org/Graphics/SVG/1.1/DTD/svg11.dtd">
<!-- Generated by graphviz version 2.40.1 (20161225.0304)
 -->
<!-- Title: G Pages: 1 -->
<svg width="575pt" height="532pt"
 viewBox="0.00 0.00 574.69 532.39" xmlns="http://www.w3.org/2000/svg" xmlns:xlink="http://www.w3.org/1999/xlink">
<g id="graph0" class="graph" transform="scale(1 1) rotate(0) translate(4 528.3903)">
<title>G</title>
<polygon fill="#ffffff" stroke="transparent" points="-4,4 -4,-528.3903 570.6911,-528.3903 570.6911,4 -4,4"/>
<!-- system.ruby.network.routers00 -->
<g id="node1" class="node">
<title>system.ruby.network.routers00</title>
<path fill="#cce6fc" stroke="#000000" d="M104.9919,-121.0688C104.9919,-121.0688 134.9919,-121.0688 134.9919,-121.0688 140.9919,-121.0688 146.9919,-127.0688 146.9919,-133.0688 146.9919,-133.0688 146.9919,-145.0688 146.9919,-145.0688 146.9919,-151.0688 140.9919,-157.0688 134.9919,-157.0688 134.9919,-157.0688 104.9919,-157.0688 104.9919,-157.0688 98.9919,-157.0688 92.9919,-151.0688 92.9919,-145.0688 92.9919,-145.0688 92.9919,-133.0688 92.9919,-133.0688 92.9919,-127.0688 98.9919,-121.0688 104.9919,-121.0688"/>
<text text-anchor="middle" x="119.9919" y="-135.3688" font-family="Arial" font-size="14.00" fill="#000000">R 0</text>
</g>
<!-- system.ruby.network.routers01 -->
<g id="node2" class="node">
<title>system.ruby.network.routers01</title>
<path fill="#cce6fc" stroke="#000000" d="M113.9126,-217.0324C113.9126,-217.0324 143.9126,-217.0324 143.9126,-217.0324 149.9126,-217.0324 155.9126,-223.0324 155.9126,-229.0324 155.9126,-229.0324 155.9126,-241.0324 155.9126,-241.0324 155.9126,-247.0324 149.9126,-253.0324 143.9126,-253.0324 143.9126,-253.0324 113.9126,-253.0324 113.9126,-253.0324 107.9126,-253.0324 101.9126,-247.0324 101.9126,-241.0324 101.9126,-241.0324 101.9126,-229.0324 101.9126,-229.0324 101.9126,-223.0324 107.9126,-217.0324 113.9126,-217.0324"/>
<text text-anchor="middle" x="128.9126" y="-231.3324" font-family="Arial" font-size="14.00" fill="#000000">R 1</text>
</g>
<!-- system.ruby.network.routers00&#45;&#45;system.ruby.network.routers01 -->
<g id="edge1" class="edge">
<title>system.ruby.network.routers00&#45;&#45;system.ruby.network.routers01</title>
<path fill="none" stroke="#000000" d="M121.6698,-157.1189C123.2546,-174.167 125.6197,-199.6089 127.2119,-216.7371"/>
</g>
<!-- system.ruby.network.routers04 -->
<g id="node5" class="node">
<title>system.ruby.network.routers04</title>
<path fill="#cce6fc" stroke="#000000" d="M200.494,-105.9498C200.494,-105.9498 230.494,-105.9498 230.494,-105.9498 236.494,-105.9498 242.494,-111.9498 242.494,-117.9498 242.494,-117.9498 242.494,-129.9498 242.494,-129.9498 242.494,-135.9498 236.494,-141.9498 230.494,-141.9498 230.494,-141.9498 200.494,-141.9498 200.494,-141.9498 194.494,-141.9498 188.494,-135.9498 188.494,-129.9498 188.494,-129.9498 188.494,-117.9498 188.494,-117.9498 188.494,-111.9498 194.494,-105.9498 200.494,-105.9498"/>
<text text-anchor="middle" x="215.494" y="-120.2498" font-family="Arial" font-size="14.00" fill="#000000">R 4</text>
</g>
<!-- system.ruby.network.routers00&#45;&#45;system.ruby.network.routers04 -->
<g id="edge13" class="edge">
<title>system.ruby.network.routers00&#45;&#45;system.ruby.network.routers04</title>
<path fill="none" stroke="#000000" d="M147.1035,-134.7768C160.0076,-132.7339 175.4018,-130.2969 188.3146,-128.2526"/>
</g>
<!-- system.ruby.network.routers02 -->
<g id="node3" class="node">
<title>system.ruby.network.routers02</title>
<path fill="#cce6fc" stroke="#000000" d="M126.1321,-310.2627C126.1321,-310.2627 156.1321,-310.2627 156.1321,-310.2627 162.1321,-310.2627 168.1321,-316.2627 168.1321,-322.2627 168.1321,-322.2627 168.1321,-334.2627 168.1321,-334.2627 168.1321,-340.2627 162.1321,-346.2627 156.1321,-346.2627 156.1321,-346.2627 126.1321,-346.2627 126.1321,-346.2627 120.1321,-346.2627 114.1321,-340.2627 114.1321,-334.2627 114.1321,-334.2627 114.1321,-322.2627 114.1321,-322.2627 114.1321,-316.2627 120.1321,-310.2627 126.1321,-310.2627"/>
<text text-anchor="middle" x="141.1321" y="-324.5627" font-family="Arial" font-size="14.00" fill="#000000">R 2</text>
</g>
<!-- system.ruby.network.routers01&#45;&#45;system.ruby.network.routers02 -->
<g id="edge2" class="edge">
<title>system.ruby.network.routers01&#45;&#45;system.ruby.network.routers02</title>
<path fill="none" stroke="#000000" d="M131.3268,-253.4517C133.4829,-269.9024 136.6227,-293.8575 138.7645,-310.1989"/>
</g>
<!-- system.ruby.network.routers05 -->
<g id="node6" class="node">
<title>system.ruby.network.routers05</title>
<path fill="#cce6fc" stroke="#000000" d="M215.0821,-204.9503C215.0821,-204.9503 245.0821,-204.9503 245.0821,-204.9503 251.0821,-204.9503 257.0821,-210.9503 257.0821,-216.9503 257.0821,-216.9503 257.0821,-228.9503 257.0821,-228.9503 257.0821,-234.9503 251.0821,-240.9503 245.0821,-240.9503 245.0821,-240.9503 215.0821,-240.9503 215.0821,-240.9503 209.0821,-240.9503 203.0821,-234.9503 203.0821,-228.9503 203.0821,-228.9503 203.0821,-216.9503 203.0821,-216.9503 203.0821,-210.9503 209.0821,-204.9503 215.0821,-204.9503"/>
<text text-anchor="middle" x="230.0821" y="-219.2503" font-family="Arial" font-size="14.00" fill="#000000">R 5</text>
</g>
<!-- system.ruby.network.routers01&#45;&#45;system.ruby.network.routers05 -->
<g id="edge16" class="edge">
<title>system.ruby.network.routers01&#45;&#45;system.ruby.network.routers05</title>
<path fill="none" stroke="#000000" d="M156.0242,-231.7946C170.5398,-230.0611 188.3688,-227.9319 202.8957,-226.197"/>
</g>
<!-- system.ruby.network.routers03 -->
<g id="node4" class="node">
<title>system.ruby.network.routers03</title>
<path fill="#cce6fc" stroke="#000000" d="M142.567,-405.5992C142.567,-405.5992 172.567,-405.5992 172.567,-405.5992 178.567,-405.5992 184.567,-411.5992 184.567,-417.5992 184.567,-417.5992 184.567,-429.5992 184.567,-429.5992 184.567,-435.5992 178.567,-441.5992 172.567,-441.5992 172.567,-441.5992 142.567,-441.5992 142.567,-441.5992 136.567,-441.5992 130.567,-435.5992 130.567,-429.5992 130.567,-429.5992 130.567,-417.5992 130.567,-417.5992 130.567,-411.5992 136.567,-405.5992 142.567,-405.5992"/>
<text text-anchor="middle" x="157.567" y="-419.8992" font-family="Arial" font-size="14.00" fill="#000000">R 3</text>
</g>
<!-- system.ruby.network.routers02&#45;&#45;system.ruby.network.routers03 -->
<g id="edge3" class="edge">
<title>system.ruby.network.routers02&#45;&#45;system.ruby.network.routers03</title>
<path fill="none" stroke="#000000" d="M144.3009,-346.6445C147.2298,-363.6347 151.5558,-388.7291 154.4636,-405.5971"/>
</g>
<!-- system.ruby.network.routers06 -->
<g id="node7" class="node">
<title>system.ruby.network.routers06</title>
<path fill="#cce6fc" stroke="#000000" d="M226.7454,-295.7056C226.7454,-295.7056 256.7454,-295.7056 256.7454,-295.7056 262.7454,-295.7056 268.7454,-301.7056 268.7454,-307.7056 268.7454,-307.7056 268.7454,-319.7056 268.7454,-319.7056 268.7454,-325.7056 262.7454,-331.7056 256.7454,-331.7056 256.7454,-331.7056 226.7454,-331.7056 226.7454,-331.7056 220.7454,-331.7056 214.7454,-325.7056 214.7454,-319.7056 214.7454,-319.7056 214.7454,-307.7056 214.7454,-307.7056 214.7454,-301.7056 220.7454,-295.7056 226.7454,-295.7056"/>
<text text-anchor="middle" x="241.7454" y="-310.0056" font-family="Arial" font-size="14.00" fill="#000000">R 6</text>
</g>
<!-- system.ruby.network.routers02&#45;&#45;system.ruby.network.routers06 -->
<g id="edge19" class="edge">
<title>system.ruby.network.routers02&#45;&#45;system.ruby.network.routers06</title>
<path fill="none" stroke="#000000" d="M168.3595,-324.3233C182.676,-322.252 200.1764,-319.72 214.4962,-317.6481"/>
</g>
<!-- system.ruby.network.routers07 -->
<g id="node8" class="node">
<title>system.ruby.network.routers07</title>
<path fill="#cce6fc" stroke="#000000" d="M238.9209,-395.977C238.9209,-395.977 268.9209,-395.977 268.9209,-395.977 274.9209,-395.977 280.9209,-401.977 280.9209,-407.977 280.9209,-407.977 280.9209,-419.977 280.9209,-419.977 280.9209,-425.977 274.9209,-431.977 268.9209,-431.977 268.9209,-431.977 238.9209,-431.977 238.9209,-431.977 232.9209,-431.977 226.9209,-425.977 226.9209,-419.977 226.9209,-419.977 226.9209,-407.977 226.9209,-407.977 226.9209,-401.977 232.9209,-395.977 238.9209,-395.977"/>
<text text-anchor="middle" x="253.9209" y="-410.277" font-family="Arial" font-size="14.00" fill="#000000">R 7</text>
</g>
<!-- system.ruby.network.routers03&#45;&#45;system.ruby.network.routers07 -->
<g id="edge22" class="edge">
<title>system.ruby.network.routers03&#45;&#45;system.ruby.network.routers07</title>
<path fill="none" stroke="#000000" d="M184.6633,-420.8933C197.7996,-419.5814 213.5406,-418.0095 226.6941,-416.6959"/>
</g>
<!-- system.ruby.network.routers04&#45;&#45;system.ruby.network.routers05 -->
<g id="edge4" class="edge">
<title>system.ruby.network.routers04&#45;&#45;system.ruby.network.routers05</title>
<path fill="none" stroke="#000000" d="M218.1697,-142.108C220.8019,-159.9709 224.7971,-187.0842 227.4234,-204.9072"/>
</g>
<!-- system.ruby.network.routers08 -->
<g id="node9" class="node">
<title>system.ruby.network.routers08</title>
<path fill="#cce6fc" stroke="#000000" d="M292.3051,-94.4085C292.3051,-94.4085 322.3051,-94.4085 322.3051,-94.4085 328.3051,-94.4085 334.3051,-100.4085 334.3051,-106.4085 334.3051,-106.4085 334.3051,-118.4085 334.3051,-118.4085 334.3051,-124.4085 328.3051,-130.4085 322.3051,-130.4085 322.3051,-130.4085 292.3051,-130.4085 292.3051,-130.4085 286.3051,-130.4085 280.3051,-124.4085 280.3051,-118.4085 280.3051,-118.4085 280.3051,-106.4085 280.3051,-106.4085 280.3051,-100.4085 286.3051,-94.4085 292.3051,-94.4085"/>
<text text-anchor="middle" x="307.3051" y="-108.7085" font-family="Arial" font-size="14.00" fill="#000000">R 8</text>
</g>
<!-- system.ruby.network.routers04&#45;&#45;system.ruby.network.routers08 -->
<g id="edge14" class="edge">
<title>system.ruby.network.routers04&#45;&#45;system.ruby.network.routers08</title>
<path fill="none" stroke="#000000" d="M242.5438,-120.5495C254.3922,-119.06 268.2689,-117.3156 280.1314,-115.8244"/>
</g>
<!-- system.ruby.network.routers05&#45;&#45;system.ruby.network.routers06 -->
<g id="edge5" class="edge">
<title>system.ruby.network.routers05&#45;&#45;system.ruby.network.routers06</title>
<path fill="none" stroke="#000000" d="M232.4424,-241.316C234.4792,-257.1652 237.4043,-279.9267 239.4284,-295.677"/>
</g>
<!-- system.ruby.network.routers09 -->
<g id="node10" class="node">
<title>system.ruby.network.routers09</title>
<path fill="#cce6fc" stroke="#000000" d="M302.6424,-192.2861C302.6424,-192.2861 332.6424,-192.2861 332.6424,-192.2861 338.6424,-192.2861 344.6424,-198.2861 344.6424,-204.2861 344.6424,-204.2861 344.6424,-216.2861 344.6424,-216.2861 344.6424,-222.2861 338.6424,-228.2861 332.6424,-228.2861 332.6424,-228.2861 302.6424,-228.2861 302.6424,-228.2861 296.6424,-228.2861 290.6424,-222.2861 290.6424,-216.2861 290.6424,-216.2861 290.6424,-204.2861 290.6424,-204.2861 290.6424,-198.2861 296.6424,-192.2861 302.6424,-192.2861"/>
<text text-anchor="middle" x="317.6424" y="-206.5861" font-family="Arial" font-size="14.00" fill="#000000">R 9</text>
</g>
<!-- system.ruby.network.routers05&#45;&#45;system.ruby.network.routers09 -->
<g id="edge17" class="edge">
<title>system.ruby.network.routers05&#45;&#45;system.ruby.network.routers09</title>
<path fill="none" stroke="#000000" d="M257.3068,-219.0127C267.8492,-217.4879 279.8937,-215.7459 290.4346,-214.2213"/>
</g>
<!-- system.ruby.network.routers06&#45;&#45;system.ruby.network.routers07 -->
<g id="edge6" class="edge">
<title>system.ruby.network.routers06&#45;&#45;system.ruby.network.routers07</title>
<path fill="none" stroke="#000000" d="M243.9785,-332.097C246.1754,-350.1891 249.5099,-377.6505 251.7019,-395.7023"/>
</g>
<!-- system.ruby.network.routers10 -->
<g id="node11" class="node">
<title>system.ruby.network.routers10</title>
<path fill="#cce6fc" stroke="#000000" d="M316.6428,-283.2442C316.6428,-283.2442 346.6428,-283.2442 346.6428,-283.2442 352.6428,-283.2442 358.6428,-289.2442 358.6428,-295.2442 358.6428,-295.2442 358.6428,-307.2442 358.6428,-307.2442 358.6428,-313.2442 352.6428,-319.2442 346.6428,-319.2442 346.6428,-319.2442 316.6428,-319.2442 316.6428,-319.2442 310.6428,-319.2442 304.6428,-313.2442 304.6428,-307.2442 304.6428,-307.2442 304.6428,-295.2442 304.6428,-295.2442 304.6428,-289.2442 310.6428,-283.2442 316.6428,-283.2442"/>
<text text-anchor="middle" x="331.6428" y="-297.5442" font-family="Arial" font-size="14.00" fill="#000000">R 10</text>
</g>
<!-- system.ruby.network.routers06&#45;&#45;system.ruby.network.routers10 -->
<g id="edge20" class="edge">
<title>system.ruby.network.routers06&#45;&#45;system.ruby.network.routers10</title>
<path fill="none" stroke="#000000" d="M269.206,-309.8991C280.3592,-308.353 293.2143,-306.5711 304.3503,-305.0274"/>
</g>
<!-- system.ruby.network.routers11 -->
<g id="node12" class="node">
<title>system.ruby.network.routers11</title>
<path fill="#cce6fc" stroke="#000000" d="M332.0425,-384.1809C332.0425,-384.1809 362.0425,-384.1809 362.0425,-384.1809 368.0425,-384.1809 374.0425,-390.1809 374.0425,-396.1809 374.0425,-396.1809 374.0425,-408.1809 374.0425,-408.1809 374.0425,-414.1809 368.0425,-420.1809 362.0425,-420.1809 362.0425,-420.1809 332.0425,-420.1809 332.0425,-420.1809 326.0425,-420.1809 320.0425,-414.1809 320.0425,-408.1809 320.0425,-408.1809 320.0425,-396.1809 320.0425,-396.1809 320.0425,-390.1809 326.0425,-384.1809 332.0425,-384.1809"/>
<text text-anchor="middle" x="347.0425" y="-398.4809" font-family="Arial" font-size="14.00" fill="#000000">R 11</text>
</g>
<!-- system.ruby.network.routers07&#45;&#45;system.ruby.network.routers11 -->
<g id="edge23" class="edge">
<title>system.ruby.network.routers07&#45;&#45;system.ruby.network.routers11</title>
<path fill="none" stroke="#000000" d="M281.3568,-410.5016C293.4816,-408.9657 307.7007,-407.1645 319.8027,-405.6315"/>
</g>
<!-- system.ruby.network.routers08&#45;&#45;system.ruby.network.routers09 -->
<g id="edge7" class="edge">
<title>system.ruby.network.routers08&#45;&#45;system.ruby.network.routers09</title>
<path fill="none" stroke="#000000" d="M309.2494,-130.8185C311.0976,-148.3175 313.8615,-174.487 315.7067,-191.9587"/>
</g>
<!-- system.ruby.network.routers12 -->
<g id="node13" class="node">
<title>system.ruby.network.routers12</title>
<path fill="#cce6fc" stroke="#000000" d="M387.8245,-82.9512C387.8245,-82.9512 417.8245,-82.9512 417.8245,-82.9512 423.8245,-82.9512 429.8245,-88.9512 429.8245,-94.9512 429.8245,-94.9512 429.8245,-106.9512 429.8245,-106.9512 429.8245,-112.9512 423.8245,-118.9512 417.8245,-118.9512 417.8245,-118.9512 387.8245,-118.9512 387.8245,-118.9512 381.8245,-118.9512 375.8245,-112.9512 375.8245,-106.9512 375.8245,-106.9512 375.8245,-94.9512 375.8245,-94.9512 375.8245,-88.9512 381.8245,-82.9512 387.8245,-82.9512"/>
<text text-anchor="middle" x="402.8245" y="-97.2512" font-family="Arial" font-size="14.00" fill="#000000">R 12</text>
</g>
<!-- system.ruby.network.routers08&#45;&#45;system.ruby.network.routers12 -->
<g id="edge15" class="edge">
<title>system.ruby.network.routers08&#45;&#45;system.ruby.network.routers12</title>
<path fill="none" stroke="#000000" d="M334.4216,-109.1559C347.328,-107.6078 362.725,-105.761 375.6401,-104.2119"/>
</g>
<!-- system.ruby.network.routers09&#45;&#45;system.ruby.network.routers10 -->
<g id="edge8" class="edge">
<title>system.ruby.network.routers09&#45;&#45;system.ruby.network.routers10</title>
<path fill="none" stroke="#000000" d="M320.4756,-228.6929C322.9206,-244.5775 326.4319,-267.3898 328.8616,-283.1752"/>
</g>
<!-- system.ruby.network.routers13 -->
<g id="node14" class="node">
<title>system.ruby.network.routers13</title>
<path fill="#cce6fc" stroke="#000000" d="M404.2535,-177.0204C404.2535,-177.0204 434.2535,-177.0204 434.2535,-177.0204 440.2535,-177.0204 446.2535,-183.0204 446.2535,-189.0204 446.2535,-189.0204 446.2535,-201.0204 446.2535,-201.0204 446.2535,-207.0204 440.2535,-213.0204 434.2535,-213.0204 434.2535,-213.0204 404.2535,-213.0204 404.2535,-213.0204 398.2535,-213.0204 392.2535,-207.0204 392.2535,-201.0204 392.2535,-201.0204 392.2535,-189.0204 392.2535,-189.0204 392.2535,-183.0204 398.2535,-177.0204 404.2535,-177.0204"/>
<text text-anchor="middle" x="419.2535" y="-191.3204" font-family="Arial" font-size="14.00" fill="#000000">R 13</text>
</g>
<!-- system.ruby.network.routers09&#45;&#45;system.ruby.network.routers13 -->
<g id="edge18" class="edge">
<title>system.ruby.network.routers09&#45;&#45;system.ruby.network.routers13</title>
<path fill="none" stroke="#000000" d="M344.8723,-206.1952C359.4512,-204.0049 377.3581,-201.3146 391.9484,-199.1226"/>
</g>
<!-- system.ruby.network.routers10&#45;&#45;system.ruby.network.routers11 -->
<g id="edge9" class="edge">
<title>system.ruby.network.routers10&#45;&#45;system.ruby.network.routers11</title>
<path fill="none" stroke="#000000" d="M334.3959,-319.2896C337.1817,-337.5487 341.4655,-365.6267 344.2613,-383.9514"/>
</g>
<!-- system.ruby.network.routers14 -->
<g id="node15" class="node">
<title>system.ruby.network.routers14</title>
<path fill="#cce6fc" stroke="#000000" d="M416.3808,-270.6713C416.3808,-270.6713 446.3808,-270.6713 446.3808,-270.6713 452.3808,-270.6713 458.3808,-276.6713 458.3808,-282.6713 458.3808,-282.6713 458.3808,-294.6713 458.3808,-294.6713 458.3808,-300.6713 452.3808,-306.6713 446.3808,-306.6713 446.3808,-306.6713 416.3808,-306.6713 416.3808,-306.6713 410.3808,-306.6713 404.3808,-300.6713 404.3808,-294.6713 404.3808,-294.6713 404.3808,-282.6713 404.3808,-282.6713 404.3808,-276.6713 410.3808,-270.6713 416.3808,-270.6713"/>
<text text-anchor="middle" x="431.3808" y="-284.9713" font-family="Arial" font-size="14.00" fill="#000000">R 14</text>
</g>
<!-- system.ruby.network.routers10&#45;&#45;system.ruby.network.routers14 -->
<g id="edge21" class="edge">
<title>system.ruby.network.routers10&#45;&#45;system.ruby.network.routers14</title>
<path fill="none" stroke="#000000" d="M358.8966,-297.8086C372.9698,-296.0345 390.0915,-293.8762 404.1599,-292.1027"/>
</g>
<!-- system.ruby.network.routers15 -->
<g id="node16" class="node">
<title>system.ruby.network.routers15</title>
<path fill="#cce6fc" stroke="#000000" d="M427.0912,-366.8699C427.0912,-366.8699 457.0912,-366.8699 457.0912,-366.8699 463.0912,-366.8699 469.0912,-372.8699 469.0912,-378.8699 469.0912,-378.8699 469.0912,-390.8699 469.0912,-390.8699 469.0912,-396.8699 463.0912,-402.8699 457.0912,-402.8699 457.0912,-402.8699 427.0912,-402.8699 427.0912,-402.8699 421.0912,-402.8699 415.0912,-396.8699 415.0912,-390.8699 415.0912,-390.8699 415.0912,-378.8699 415.0912,-378.8699 415.0912,-372.8699 421.0912,-366.8699 427.0912,-366.8699"/>
<text text-anchor="middle" x="442.0912" y="-381.1699" font-family="Arial" font-size="14.00" fill="#000000">R 15</text>
</g>
<!-- system.ruby.network.routers11&#45;&#45;system.ruby.network.routers15 -->
<g id="edge24" class="edge">
<title>system.ruby.network.routers11&#45;&#45;system.ruby.network.routers15</title>
<path fill="none" stroke="#000000" d="M374.2796,-397.2203C387.0064,-394.9024 402.1228,-392.1492 414.8501,-389.8313"/>
</g>
<!-- system.ruby.network.routers12&#45;&#45;system.ruby.network.routers13 -->
<g id="edge10" class="edge">
<title>system.ruby.network.routers12&#45;&#45;system.ruby.network.routers13</title>
<path fill="none" stroke="#000000" d="M405.9921,-119.0887C408.9013,-135.7462 413.1894,-160.2987 416.0955,-176.9386"/>
</g>
<!-- system.ruby.network.routers13&#45;&#45;system.ruby.network.routers14 -->
<g id="edge11" class="edge">
<title>system.ruby.network.routers13&#45;&#45;system.ruby.network.routers14</title>
<path fill="none" stroke="#000000" d="M421.5917,-213.0772C423.7392,-229.6607 426.9045,-254.104 429.0497,-270.6699"/>
</g>
<!-- system.ruby.network.routers14&#45;&#45;system.ruby.network.routers15 -->
<g id="edge12" class="edge">
<title>system.ruby.network.routers14&#45;&#45;system.ruby.network.routers15</title>
<path fill="none" stroke="#000000" d="M433.3954,-306.7655C435.3102,-323.9643 438.1738,-349.6849 440.0857,-366.8568"/>
</g>
<!-- system.ruby.l1_cntrl0 -->
<g id="node17" class="node">
<title>system.ruby.l1_cntrl0</title>
<path fill="#e5bcd0" stroke="#000000" d="M47.1019,-49.0092C47.1019,-49.0092 94.1019,-49.0092 94.1019,-49.0092 100.1019,-49.0092 106.1019,-55.0092 106.1019,-61.0092 106.1019,-61.0092 106.1019,-73.0092 106.1019,-73.0092 106.1019,-79.0092 100.1019,-85.0092 94.1019,-85.0092 94.1019,-85.0092 47.1019,-85.0092 47.1019,-85.0092 41.1019,-85.0092 35.1019,-79.0092 35.1019,-73.0092 35.1019,-73.0092 35.1019,-61.0092 35.1019,-61.0092 35.1019,-55.0092 41.1019,-49.0092 47.1019,-49.0092"/>
<text text-anchor="middle" x="70.6019" y="-63.3092" font-family="Arial" font-size="14.00" fill="#000000">l1_cntrl0</text>
</g>
<!-- system.ruby.l1_cntrl0&#45;&#45;system.ruby.network.routers00 -->
<g id="edge25" class="edge">
<title>system.ruby.l1_cntrl0&#45;&#45;system.ruby.network.routers00</title>
<path fill="none" stroke="#000000" d="M83.0651,-85.1929C90.5522,-96.1166 100.0463,-109.9683 107.5327,-120.891"/>
</g>
<!-- system.ruby.l1_cntrl1 -->
<g id="node18" class="node">
<title>system.ruby.l1_cntrl1</title>
<path fill="#e5bcd0" stroke="#000000" d="M22.7022,-229.0426C22.7022,-229.0426 69.7022,-229.0426 69.7022,-229.0426 75.7022,-229.0426 81.7022,-235.0426 81.7022,-241.0426 81.7022,-241.0426 81.7022,-253.0426 81.7022,-253.0426 81.7022,-259.0426 75.7022,-265.0426 69.7022,-265.0426 69.7022,-265.0426 22.7022,-265.0426 22.7022,-265.0426 16.7022,-265.0426 10.7022,-259.0426 10.7022,-253.0426 10.7022,-253.0426 10.7022,-241.0426 10.7022,-241.0426 10.7022,-235.0426 16.7022,-229.0426 22.7022,-229.0426"/>
<text text-anchor="middle" x="46.2022" y="-243.3426" font-family="Arial" font-size="14.00" fill="#000000">l1_cntrl1</text>
</g>
<!-- system.ruby.l1_cntrl1&#45;&#45;system.ruby.network.routers01 -->
<g id="edge26" class="edge">
<title>system.ruby.l1_cntrl1&#45;&#45;system.ruby.network.routers01</title>
<path fill="none" stroke="#000000" d="M81.7588,-241.8795C88.5016,-240.9004 95.4541,-239.8909 101.8802,-238.9578"/>
</g>
<!-- system.ruby.l1_cntrl2 -->
<g id="node19" class="node">
<title>system.ruby.l1_cntrl2</title>
<path fill="#e5bcd0" stroke="#000000" d="M34.655,-320.0322C34.655,-320.0322 81.655,-320.0322 81.655,-320.0322 87.655,-320.0322 93.655,-326.0322 93.655,-332.0322 93.655,-332.0322 93.655,-344.0322 93.655,-344.0322 93.655,-350.0322 87.655,-356.0322 81.655,-356.0322 81.655,-356.0322 34.655,-356.0322 34.655,-356.0322 28.655,-356.0322 22.655,-350.0322 22.655,-344.0322 22.655,-344.0322 22.655,-332.0322 22.655,-332.0322 22.655,-326.0322 28.655,-320.0322 34.655,-320.0322"/>
<text text-anchor="middle" x="58.155" y="-334.3322" font-family="Arial" font-size="14.00" fill="#000000">l1_cntrl2</text>
</g>
<!-- system.ruby.l1_cntrl2&#45;&#45;system.ruby.network.routers02 -->
<g id="edge27" class="edge">
<title>system.ruby.l1_cntrl2&#45;&#45;system.ruby.network.routers02</title>
<path fill="none" stroke="#000000" d="M93.8263,-333.8324C100.5908,-333.0359 107.5657,-332.2147 114.0125,-331.4557"/>
</g>
<!-- system.ruby.l1_cntrl3 -->
<g id="node20" class="node">
<title>system.ruby.l1_cntrl3</title>
<path fill="#e5bcd0" stroke="#000000" d="M104.7046,-487.8903C104.7046,-487.8903 151.7046,-487.8903 151.7046,-487.8903 157.7046,-487.8903 163.7046,-493.8903 163.7046,-499.8903 163.7046,-499.8903 163.7046,-511.8903 163.7046,-511.8903 163.7046,-517.8903 157.7046,-523.8903 151.7046,-523.8903 151.7046,-523.8903 104.7046,-523.8903 104.7046,-523.8903 98.7046,-523.8903 92.7046,-517.8903 92.7046,-511.8903 92.7046,-511.8903 92.7046,-499.8903 92.7046,-499.8903 92.7046,-493.8903 98.7046,-487.8903 104.7046,-487.8903"/>
<text text-anchor="middle" x="128.2046" y="-502.1903" font-family="Arial" font-size="14.00" fill="#000000">l1_cntrl3</text>
</g>
<!-- system.ruby.l1_cntrl3&#45;&#45;system.ruby.network.routers03 -->
<g id="edge28" class="edge">
<title>system.ruby.l1_cntrl3&#45;&#45;system.ruby.network.routers03</title>
<path fill="none" stroke="#000000" d="M134.721,-487.6272C139.5869,-473.9902 146.2073,-455.436 151.0687,-441.8112"/>
</g>
<!-- system.ruby.l1_cntrl4 -->
<g id="node21" class="node">
<title>system.ruby.l1_cntrl4</title>
<path fill="#e5bcd0" stroke="#000000" d="M146.162,-37.5179C146.162,-37.5179 193.162,-37.5179 193.162,-37.5179 199.162,-37.5179 205.162,-43.5179 205.162,-49.5179 205.162,-49.5179 205.162,-61.5179 205.162,-61.5179 205.162,-67.5179 199.162,-73.5179 193.162,-73.5179 193.162,-73.5179 146.162,-73.5179 146.162,-73.5179 140.162,-73.5179 134.162,-67.5179 134.162,-61.5179 134.162,-61.5179 134.162,-49.5179 134.162,-49.5179 134.162,-43.5179 140.162,-37.5179 146.162,-37.5179"/>
<text text-anchor="middle" x="169.662" y="-51.8179" font-family="Arial" font-size="14.00" fill="#000000">l1_cntrl4</text>
</g>
<!-- system.ruby.l1_cntrl4&#45;&#45;system.ruby.network.routers04 -->
<g id="edge29" class="edge">
<title>system.ruby.l1_cntrl4&#45;&#45;system.ruby.network.routers04</title>
<path fill="none" stroke="#000000" d="M181.9441,-73.8564C188.52,-83.6748 196.597,-95.7346 203.178,-105.5607"/>
</g>
<!-- system.ruby.l1_cntrl5 -->
<g id="node22" class="node">
<title>system.ruby.l1_cntrl5</title>
<path fill="#e5bcd0" stroke="#000000" d="M173.7306,-156.0123C173.7306,-156.0123 220.7306,-156.0123 220.7306,-156.0123 226.7306,-156.0123 232.7306,-162.0123 232.7306,-168.0123 232.7306,-168.0123 232.7306,-180.0123 232.7306,-180.0123 232.7306,-186.0123 226.7306,-192.0123 220.7306,-192.0123 220.7306,-192.0123 173.7306,-192.0123 173.7306,-192.0123 167.7306,-192.0123 161.7306,-186.0123 161.7306,-180.0123 161.7306,-180.0123 161.7306,-168.0123 161.7306,-168.0123 161.7306,-162.0123 167.7306,-156.0123 173.7306,-156.0123"/>
<text text-anchor="middle" x="197.2306" y="-170.3123" font-family="Arial" font-size="14.00" fill="#000000">l1_cntrl5</text>
</g>
<!-- system.ruby.l1_cntrl5&#45;&#45;system.ruby.network.routers05 -->
<g id="edge30" class="edge">
<title>system.ruby.l1_cntrl5&#45;&#45;system.ruby.network.routers05</title>
<path fill="none" stroke="#000000" d="M209.4633,-192.235C212.2362,-196.3656 215.1799,-200.7508 217.9486,-204.8753"/>
</g>
<!-- system.ruby.l1_cntrl6 -->
<g id="node23" class="node">
<title>system.ruby.l1_cntrl6</title>
<path fill="#e5bcd0" stroke="#000000" d="M200.5859,-351.3703C200.5859,-351.3703 247.5859,-351.3703 247.5859,-351.3703 253.5859,-351.3703 259.5859,-357.3703 259.5859,-363.3703 259.5859,-363.3703 259.5859,-375.3703 259.5859,-375.3703 259.5859,-381.3703 253.5859,-387.3703 247.5859,-387.3703 247.5859,-387.3703 200.5859,-387.3703 200.5859,-387.3703 194.5859,-387.3703 188.5859,-381.3703 188.5859,-375.3703 188.5859,-375.3703 188.5859,-363.3703 188.5859,-363.3703 188.5859,-357.3703 194.5859,-351.3703 200.5859,-351.3703"/>
<text text-anchor="middle" x="224.0859" y="-365.6703" font-family="Arial" font-size="14.00" fill="#000000">l1_cntrl6</text>
</g>
<!-- system.ruby.l1_cntrl6&#45;&#45;system.ruby.network.routers06 -->
<g id="edge31" class="edge">
<title>system.ruby.l1_cntrl6&#45;&#45;system.ruby.network.routers06</title>
<path fill="none" stroke="#000000" d="M229.8683,-351.1436C231.8398,-344.929 234.0425,-337.9861 236.0103,-331.7832"/>
</g>
<!-- system.ruby.l1_cntrl7 -->
<g id="node24" class="node">
<title>system.ruby.l1_cntrl7</title>
<path fill="#e5bcd0" stroke="#000000" d="M242.6578,-478.705C242.6578,-478.705 289.6578,-478.705 289.6578,-478.705 295.6578,-478.705 301.6578,-484.705 301.6578,-490.705 301.6578,-490.705 301.6578,-502.705 301.6578,-502.705 301.6578,-508.705 295.6578,-514.705 289.6578,-514.705 289.6578,-514.705 242.6578,-514.705 242.6578,-514.705 236.6578,-514.705 230.6578,-508.705 230.6578,-502.705 230.6578,-502.705 230.6578,-490.705 230.6578,-490.705 230.6578,-484.705 236.6578,-478.705 242.6578,-478.705"/>
<text text-anchor="middle" x="266.1578" y="-493.005" font-family="Arial" font-size="14.00" fill="#000000">l1_cntrl7</text>
</g>
<!-- system.ruby.l1_cntrl7&#45;&#45;system.ruby.network.routers07 -->
<g id="edge32" class="edge">
<title>system.ruby.l1_cntrl7&#45;&#45;system.ruby.network.routers07</title>
<path fill="none" stroke="#000000" d="M263.4421,-478.345C261.4001,-464.5403 258.6168,-445.7235 256.587,-432.0011"/>
</g>
<!-- system.ruby.l1_cntrl8 -->
<g id="node25" class="node">
<title>system.ruby.l1_cntrl8</title>
<path fill="#e5bcd0" stroke="#000000" d="M310.2826,-16.6337C310.2826,-16.6337 357.2826,-16.6337 357.2826,-16.6337 363.2826,-16.6337 369.2826,-22.6337 369.2826,-28.6337 369.2826,-28.6337 369.2826,-40.6337 369.2826,-40.6337 369.2826,-46.6337 363.2826,-52.6337 357.2826,-52.6337 357.2826,-52.6337 310.2826,-52.6337 310.2826,-52.6337 304.2826,-52.6337 298.2826,-46.6337 298.2826,-40.6337 298.2826,-40.6337 298.2826,-28.6337 298.2826,-28.6337 298.2826,-22.6337 304.2826,-16.6337 310.2826,-16.6337"/>
<text text-anchor="middle" x="333.7826" y="-30.9337" font-family="Arial" font-size="14.00" fill="#000000">l1_cntrl8</text>
</g>
<!-- system.ruby.l1_cntrl8&#45;&#45;system.ruby.network.routers08 -->
<g id="edge33" class="edge">
<title>system.ruby.l1_cntrl8&#45;&#45;system.ruby.network.routers08</title>
<path fill="none" stroke="#000000" d="M327.6415,-52.6723C323.3946,-65.1472 317.7641,-81.6863 313.5045,-94.1983"/>
</g>
<!-- system.ruby.l1_cntrl9 -->
<g id="node26" class="node">
<title>system.ruby.l1_cntrl9</title>
<path fill="#e5bcd0" stroke="#000000" d="M320.8428,-137.8038C320.8428,-137.8038 367.8428,-137.8038 367.8428,-137.8038 373.8428,-137.8038 379.8428,-143.8038 379.8428,-149.8038 379.8428,-149.8038 379.8428,-161.8038 379.8428,-161.8038 379.8428,-167.8038 373.8428,-173.8038 367.8428,-173.8038 367.8428,-173.8038 320.8428,-173.8038 320.8428,-173.8038 314.8428,-173.8038 308.8428,-167.8038 308.8428,-161.8038 308.8428,-161.8038 308.8428,-149.8038 308.8428,-149.8038 308.8428,-143.8038 314.8428,-137.8038 320.8428,-137.8038"/>
<text text-anchor="middle" x="344.3428" y="-152.1038" font-family="Arial" font-size="14.00" fill="#000000">l1_cntrl9</text>
</g>
<!-- system.ruby.l1_cntrl9&#45;&#45;system.ruby.network.routers09 -->
<g id="edge34" class="edge">
<title>system.ruby.l1_cntrl9&#45;&#45;system.ruby.network.routers09</title>
<path fill="none" stroke="#000000" d="M335.452,-173.9456C332.6,-179.7652 329.4412,-186.2107 326.5855,-192.0378"/>
</g>
<!-- system.ruby.l1_cntrl10 -->
<g id="node27" class="node">
<title>system.ruby.l1_cntrl10</title>
<path fill="#e5bcd0" stroke="#000000" d="M359.5585,-304.61C359.5585,-304.61 415.5585,-304.61 415.5585,-304.61 421.5585,-304.61 427.5585,-310.61 427.5585,-316.61 427.5585,-316.61 427.5585,-328.61 427.5585,-328.61 427.5585,-334.61 421.5585,-340.61 415.5585,-340.61 415.5585,-340.61 359.5585,-340.61 359.5585,-340.61 353.5585,-340.61 347.5585,-334.61 347.5585,-328.61 347.5585,-328.61 347.5585,-316.61 347.5585,-316.61 347.5585,-310.61 353.5585,-304.61 359.5585,-304.61"/>
<text text-anchor="middle" x="387.5585" y="-318.91" font-family="Arial" font-size="14.00" fill="#000000">l1_cntrl10</text>
</g>
<!-- system.ruby.l1_cntrl10&#45;&#45;system.ruby.network.routers10 -->
<g id="edge35" class="edge">
<title>system.ruby.l1_cntrl10&#45;&#45;system.ruby.network.routers10</title>
<path fill="none" stroke="#000000" d="M347.5164,-307.3096C347.3764,-307.2561 347.2368,-307.2028 347.0978,-307.1497"/>
</g>
<!-- system.ruby.l1_cntrl11 -->
<g id="node28" class="node">
<title>system.ruby.l1_cntrl11</title>
<path fill="#e5bcd0" stroke="#000000" d="M329.174,-467.1386C329.174,-467.1386 385.174,-467.1386 385.174,-467.1386 391.174,-467.1386 397.174,-473.1386 397.174,-479.1386 397.174,-479.1386 397.174,-491.1386 397.174,-491.1386 397.174,-497.1386 391.174,-503.1386 385.174,-503.1386 385.174,-503.1386 329.174,-503.1386 329.174,-503.1386 323.174,-503.1386 317.174,-497.1386 317.174,-491.1386 317.174,-491.1386 317.174,-479.1386 317.174,-479.1386 317.174,-473.1386 323.174,-467.1386 329.174,-467.1386"/>
<text text-anchor="middle" x="357.174" y="-481.4386" font-family="Arial" font-size="14.00" fill="#000000">l1_cntrl11</text>
</g>
<!-- system.ruby.l1_cntrl11&#45;&#45;system.ruby.network.routers11 -->
<g id="edge36" class="edge">
<title>system.ruby.l1_cntrl11&#45;&#45;system.ruby.network.routers11</title>
<path fill="none" stroke="#000000" d="M354.9756,-467.138C353.2878,-453.3185 350.9669,-434.3146 349.2716,-420.4328"/>
</g>
<!-- system.ruby.l1_cntrl12 -->
<g id="node29" class="node">
<title>system.ruby.l1_cntrl12</title>
<path fill="#e5bcd0" stroke="#000000" d="M403.7505,-.5C403.7505,-.5 459.7505,-.5 459.7505,-.5 465.7505,-.5 471.7505,-6.5 471.7505,-12.5 471.7505,-12.5 471.7505,-24.5 471.7505,-24.5 471.7505,-30.5 465.7505,-36.5 459.7505,-36.5 459.7505,-36.5 403.7505,-36.5 403.7505,-36.5 397.7505,-36.5 391.7505,-30.5 391.7505,-24.5 391.7505,-24.5 391.7505,-12.5 391.7505,-12.5 391.7505,-6.5 397.7505,-.5 403.7505,-.5"/>
<text text-anchor="middle" x="431.7505" y="-14.8" font-family="Arial" font-size="14.00" fill="#000000">l1_cntrl12</text>
</g>
<!-- system.ruby.l1_cntrl12&#45;&#45;system.ruby.network.routers12 -->
<g id="edge37" class="edge">
<title>system.ruby.l1_cntrl12&#45;&#45;system.ruby.network.routers12</title>
<path fill="none" stroke="#000000" d="M425.3308,-36.7986C420.5373,-50.4622 414.0153,-69.0525 409.2261,-82.7037"/>
</g>
<!-- system.ruby.l1_cntrl13 -->
<g id="node30" class="node">
<title>system.ruby.l1_cntrl13</title>
<path fill="#e5bcd0" stroke="#000000" d="M474.3347,-167.2285C474.3347,-167.2285 530.3347,-167.2285 530.3347,-167.2285 536.3347,-167.2285 542.3347,-173.2285 542.3347,-179.2285 542.3347,-179.2285 542.3347,-191.2285 542.3347,-191.2285 542.3347,-197.2285 536.3347,-203.2285 530.3347,-203.2285 530.3347,-203.2285 474.3347,-203.2285 474.3347,-203.2285 468.3347,-203.2285 462.3347,-197.2285 462.3347,-191.2285 462.3347,-191.2285 462.3347,-179.2285 462.3347,-179.2285 462.3347,-173.2285 468.3347,-167.2285 474.3347,-167.2285"/>
<text text-anchor="middle" x="502.3347" y="-181.5285" font-family="Arial" font-size="14.00" fill="#000000">l1_cntrl13</text>
</g>
<!-- system.ruby.l1_cntrl13&#45;&#45;system.ruby.network.routers13 -->
<g id="edge38" class="edge">
<title>system.ruby.l1_cntrl13&#45;&#45;system.ruby.network.routers13</title>
<path fill="none" stroke="#000000" d="M462.2542,-189.9524C456.9429,-190.5784 451.5997,-191.2081 446.5725,-191.8006"/>
</g>
<!-- system.ruby.l1_cntrl14 -->
<g id="node31" class="node">
<title>system.ruby.l1_cntrl14</title>
<path fill="#e5bcd0" stroke="#000000" d="M481.6282,-296.6629C481.6282,-296.6629 537.6282,-296.6629 537.6282,-296.6629 543.6282,-296.6629 549.6282,-302.6629 549.6282,-308.6629 549.6282,-308.6629 549.6282,-320.6629 549.6282,-320.6629 549.6282,-326.6629 543.6282,-332.6629 537.6282,-332.6629 537.6282,-332.6629 481.6282,-332.6629 481.6282,-332.6629 475.6282,-332.6629 469.6282,-326.6629 469.6282,-320.6629 469.6282,-320.6629 469.6282,-308.6629 469.6282,-308.6629 469.6282,-302.6629 475.6282,-296.6629 481.6282,-296.6629"/>
<text text-anchor="middle" x="509.6282" y="-310.9629" font-family="Arial" font-size="14.00" fill="#000000">l1_cntrl14</text>
</g>
<!-- system.ruby.l1_cntrl14&#45;&#45;system.ruby.network.routers14 -->
<g id="edge39" class="edge">
<title>system.ruby.l1_cntrl14&#45;&#45;system.ruby.network.routers14</title>
<path fill="none" stroke="#000000" d="M469.5876,-301.3625C465.8276,-300.1135 462.0788,-298.8683 458.4804,-297.673"/>
</g>
<!-- system.ruby.l1_cntrl15 -->
<g id="node32" class="node">
<title>system.ruby.l1_cntrl15</title>
<path fill="#e5bcd0" stroke="#000000" d="M464.9644,-437.8778C464.9644,-437.8778 520.9644,-437.8778 520.9644,-437.8778 526.9644,-437.8778 532.9644,-443.8778 532.9644,-449.8778 532.9644,-449.8778 532.9644,-461.8778 532.9644,-461.8778 532.9644,-467.8778 526.9644,-473.8778 520.9644,-473.8778 520.9644,-473.8778 464.9644,-473.8778 464.9644,-473.8778 458.9644,-473.8778 452.9644,-467.8778 452.9644,-461.8778 452.9644,-461.8778 452.9644,-449.8778 452.9644,-449.8778 452.9644,-443.8778 458.9644,-437.8778 464.9644,-437.8778"/>
<text text-anchor="middle" x="492.9644" y="-452.1778" font-family="Arial" font-size="14.00" fill="#000000">l1_cntrl15</text>
</g>
<!-- system.ruby.l1_cntrl15&#45;&#45;system.ruby.network.routers15 -->
<g id="edge40" class="edge">
<title>system.ruby.l1_cntrl15&#45;&#45;system.ruby.network.routers15</title>
<path fill="none" stroke="#000000" d="M479.8633,-437.5915C472.3266,-427.0719 462.8836,-413.8915 455.3247,-403.341"/>
</g>
<!-- system.ruby.dir_cntrl0 -->
<g id="node33" class="node">
<title>system.ruby.dir_cntrl0</title>
<path fill="#e5bcd0" stroke="#000000" d="M12,-90.9044C12,-90.9044 64,-90.9044 64,-90.9044 70,-90.9044 76,-96.9044 76,-102.9044 76,-102.9044 76,-114.9044 76,-114.9044 76,-120.9044 70,-126.9044 64,-126.9044 64,-126.9044 12,-126.9044 12,-126.9044 6,-126.9044 0,-120.9044 0,-114.9044 0,-114.9044 0,-102.9044 0,-102.9044 0,-96.9044 6,-90.9044 12,-90.9044"/>
<text text-anchor="middle" x="38" y="-105.2044" font-family="Arial" font-size="14.00" fill="#000000">dir_cntrl0</text>
</g>
<!-- system.ruby.dir_cntrl0&#45;&#45;system.ruby.network.routers00 -->
<g id="edge41" class="edge">
<title>system.ruby.dir_cntrl0&#45;&#45;system.ruby.network.routers00</title>
<path fill="none" stroke="#000000" d="M76.1155,-122.9269C81.803,-125.0193 87.5648,-127.1391 92.9601,-129.124"/>
</g>
<!-- system.ruby.dir_cntrl1 -->
<g id="node34" class="node">
<title>system.ruby.dir_cntrl1</title>
<path fill="#e5bcd0" stroke="#000000" d="M25.4491,-190.09C25.4491,-190.09 77.4491,-190.09 77.4491,-190.09 83.4491,-190.09 89.4491,-196.09 89.4491,-202.09 89.4491,-202.09 89.4491,-214.09 89.4491,-214.09 89.4491,-220.09 83.4491,-226.09 77.4491,-226.09 77.4491,-226.09 25.4491,-226.09 25.4491,-226.09 19.4491,-226.09 13.4491,-220.09 13.4491,-214.09 13.4491,-214.09 13.4491,-202.09 13.4491,-202.09 13.4491,-196.09 19.4491,-190.09 25.4491,-190.09"/>
<text text-anchor="middle" x="51.4491" y="-204.39" font-family="Arial" font-size="14.00" fill="#000000">dir_cntrl1</text>
</g>
<!-- system.ruby.dir_cntrl1&#45;&#45;system.ruby.network.routers01 -->
<g id="edge42" class="edge">
<title>system.ruby.dir_cntrl1&#45;&#45;system.ruby.network.routers01</title>
<path fill="none" stroke="#000000" d="M89.727,-221.4034C93.8436,-222.8352 97.9671,-224.2694 101.9114,-225.6412"/>
</g>
<!-- system.ruby.dir_cntrl2 -->
<g id="node35" class="node">
<title>system.ruby.dir_cntrl2</title>
<path fill="#e5bcd0" stroke="#000000" d="M47.0588,-356.3561C47.0588,-356.3561 99.0588,-356.3561 99.0588,-356.3561 105.0588,-356.3561 111.0588,-362.3561 111.0588,-368.3561 111.0588,-368.3561 111.0588,-380.3561 111.0588,-380.3561 111.0588,-386.3561 105.0588,-392.3561 99.0588,-392.3561 99.0588,-392.3561 47.0588,-392.3561 47.0588,-392.3561 41.0588,-392.3561 35.0588,-386.3561 35.0588,-380.3561 35.0588,-380.3561 35.0588,-368.3561 35.0588,-368.3561 35.0588,-362.3561 41.0588,-356.3561 47.0588,-356.3561"/>
<text text-anchor="middle" x="73.0588" y="-370.6561" font-family="Arial" font-size="14.00" fill="#000000">dir_cntrl2</text>
</g>
<!-- system.ruby.dir_cntrl2&#45;&#45;system.ruby.network.routers02 -->
<g id="edge43" class="edge">
<title>system.ruby.dir_cntrl2&#45;&#45;system.ruby.network.routers02</title>
<path fill="none" stroke="#000000" d="M99.9632,-356.1388C104.7201,-352.9178 109.6716,-349.5651 114.4231,-346.3477"/>
</g>
<!-- system.ruby.dir_cntrl3 -->
<g id="node36" class="node">
<title>system.ruby.dir_cntrl3</title>
<path fill="#e5bcd0" stroke="#000000" d="M60.047,-455.7642C60.047,-455.7642 112.047,-455.7642 112.047,-455.7642 118.047,-455.7642 124.047,-461.7642 124.047,-467.7642 124.047,-467.7642 124.047,-479.7642 124.047,-479.7642 124.047,-485.7642 118.047,-491.7642 112.047,-491.7642 112.047,-491.7642 60.047,-491.7642 60.047,-491.7642 54.047,-491.7642 48.047,-485.7642 48.047,-479.7642 48.047,-479.7642 48.047,-467.7642 48.047,-467.7642 48.047,-461.7642 54.047,-455.7642 60.047,-455.7642"/>
<text text-anchor="middle" x="86.047" y="-470.0642" font-family="Arial" font-size="14.00" fill="#000000">dir_cntrl3</text>
</g>
<!-- system.ruby.dir_cntrl3&#45;&#45;system.ruby.network.routers03 -->
<g id="edge44" class="edge">
<title>system.ruby.dir_cntrl3&#45;&#45;system.ruby.network.routers03</title>
<path fill="none" stroke="#000000" d="M111.8674,-455.6535C118.2692,-451.1631 125.1328,-446.3489 131.5443,-441.8518"/>
</g>
<!-- system.ruby.dir_cntrl4 -->
<g id="node37" class="node">
<title>system.ruby.dir_cntrl4</title>
<path fill="#e5bcd0" stroke="#000000" d="M179.8992,-22.9861C179.8992,-22.9861 231.8992,-22.9861 231.8992,-22.9861 237.8992,-22.9861 243.8992,-28.9861 243.8992,-34.9861 243.8992,-34.9861 243.8992,-46.9861 243.8992,-46.9861 243.8992,-52.9861 237.8992,-58.9861 231.8992,-58.9861 231.8992,-58.9861 179.8992,-58.9861 179.8992,-58.9861 173.8992,-58.9861 167.8992,-52.9861 167.8992,-46.9861 167.8992,-46.9861 167.8992,-34.9861 167.8992,-34.9861 167.8992,-28.9861 173.8992,-22.9861 179.8992,-22.9861"/>
<text text-anchor="middle" x="205.8992" y="-37.2861" font-family="Arial" font-size="14.00" fill="#000000">dir_cntrl4</text>
</g>
<!-- system.ruby.dir_cntrl4&#45;&#45;system.ruby.network.routers04 -->
<g id="edge45" class="edge">
<title>system.ruby.dir_cntrl4&#45;&#45;system.ruby.network.routers04</title>
<path fill="none" stroke="#000000" d="M207.9811,-58.988C209.5795,-72.8085 211.7775,-91.8138 213.383,-105.6966"/>
</g>
<!-- system.ruby.dir_cntrl5 -->
<g id="node38" class="node">
<title>system.ruby.dir_cntrl5</title>
<path fill="#e5bcd0" stroke="#000000" d="M150.7202,-195.6539C150.7202,-195.6539 202.7202,-195.6539 202.7202,-195.6539 208.7202,-195.6539 214.7202,-201.6539 214.7202,-207.6539 214.7202,-207.6539 214.7202,-219.6539 214.7202,-219.6539 214.7202,-225.6539 208.7202,-231.6539 202.7202,-231.6539 202.7202,-231.6539 150.7202,-231.6539 150.7202,-231.6539 144.7202,-231.6539 138.7202,-225.6539 138.7202,-219.6539 138.7202,-219.6539 138.7202,-207.6539 138.7202,-207.6539 138.7202,-201.6539 144.7202,-195.6539 150.7202,-195.6539"/>
<text text-anchor="middle" x="176.7202" y="-209.9539" font-family="Arial" font-size="14.00" fill="#000000">dir_cntrl5</text>
</g>
<!-- system.ruby.dir_cntrl5&#45;&#45;system.ruby.network.routers05 -->
<g id="edge46" class="edge">
<title>system.ruby.dir_cntrl5&#45;&#45;system.ruby.network.routers05</title>
<path fill="none" stroke="#000000" d="M214.9335,-220.3112C215.0671,-220.3345 215.2003,-220.3577 215.333,-220.3808"/>
</g>
<!-- system.ruby.dir_cntrl6 -->
<g id="node39" class="node">
<title>system.ruby.dir_cntrl6</title>
<path fill="#e5bcd0" stroke="#000000" d="M166.3405,-321.2369C166.3405,-321.2369 218.3405,-321.2369 218.3405,-321.2369 224.3405,-321.2369 230.3405,-327.2369 230.3405,-333.2369 230.3405,-333.2369 230.3405,-345.2369 230.3405,-345.2369 230.3405,-351.2369 224.3405,-357.2369 218.3405,-357.2369 218.3405,-357.2369 166.3405,-357.2369 166.3405,-357.2369 160.3405,-357.2369 154.3405,-351.2369 154.3405,-345.2369 154.3405,-345.2369 154.3405,-333.2369 154.3405,-333.2369 154.3405,-327.2369 160.3405,-321.2369 166.3405,-321.2369"/>
<text text-anchor="middle" x="192.3405" y="-335.5369" font-family="Arial" font-size="14.00" fill="#000000">dir_cntrl6</text>
</g>
<!-- system.ruby.dir_cntrl6&#45;&#45;system.ruby.network.routers06 -->
<g id="edge47" class="edge">
<title>system.ruby.dir_cntrl6&#45;&#45;system.ruby.network.routers06</title>
<path fill="none" stroke="#000000" d="M227.1895,-321.2278C227.3172,-321.1618 227.4445,-321.096 227.5714,-321.0304"/>
</g>
<!-- system.ruby.dir_cntrl7 -->
<g id="node40" class="node">
<title>system.ruby.dir_cntrl7</title>
<path fill="#e5bcd0" stroke="#000000" d="M201.3319,-473.9367C201.3319,-473.9367 253.3319,-473.9367 253.3319,-473.9367 259.3319,-473.9367 265.3319,-479.9367 265.3319,-485.9367 265.3319,-485.9367 265.3319,-497.9367 265.3319,-497.9367 265.3319,-503.9367 259.3319,-509.9367 253.3319,-509.9367 253.3319,-509.9367 201.3319,-509.9367 201.3319,-509.9367 195.3319,-509.9367 189.3319,-503.9367 189.3319,-497.9367 189.3319,-497.9367 189.3319,-485.9367 189.3319,-485.9367 189.3319,-479.9367 195.3319,-473.9367 201.3319,-473.9367"/>
<text text-anchor="middle" x="227.3319" y="-488.2367" font-family="Arial" font-size="14.00" fill="#000000">dir_cntrl7</text>
</g>
<!-- system.ruby.dir_cntrl7&#45;&#45;system.ruby.network.routers07 -->
<g id="edge48" class="edge">
<title>system.ruby.dir_cntrl7&#45;&#45;system.ruby.network.routers07</title>
<path fill="none" stroke="#000000" d="M233.4988,-473.8552C237.7636,-461.3506 243.4179,-444.7722 247.6954,-432.2305"/>
</g>
<!-- system.ruby.dir_cntrl8 -->
<g id="node41" class="node">
<title>system.ruby.dir_cntrl8</title>
<path fill="#e5bcd0" stroke="#000000" d="M269.2584,-11.5366C269.2584,-11.5366 321.2584,-11.5366 321.2584,-11.5366 327.2584,-11.5366 333.2584,-17.5366 333.2584,-23.5366 333.2584,-23.5366 333.2584,-35.5366 333.2584,-35.5366 333.2584,-41.5366 327.2584,-47.5366 321.2584,-47.5366 321.2584,-47.5366 269.2584,-47.5366 269.2584,-47.5366 263.2584,-47.5366 257.2584,-41.5366 257.2584,-35.5366 257.2584,-35.5366 257.2584,-23.5366 257.2584,-23.5366 257.2584,-17.5366 263.2584,-11.5366 269.2584,-11.5366"/>
<text text-anchor="middle" x="295.2584" y="-25.8366" font-family="Arial" font-size="14.00" fill="#000000">dir_cntrl8</text>
</g>
<!-- system.ruby.dir_cntrl8&#45;&#45;system.ruby.network.routers08 -->
<g id="edge49" class="edge">
<title>system.ruby.dir_cntrl8&#45;&#45;system.ruby.network.routers08</title>
<path fill="none" stroke="#000000" d="M297.9319,-47.9286C299.9421,-61.7572 302.6822,-80.6068 304.6804,-94.3531"/>
</g>
<!-- system.ruby.dir_cntrl9 -->
<g id="node42" class="node">
<title>system.ruby.dir_cntrl9</title>
<path fill="#e5bcd0" stroke="#000000" d="M341.126,-182.1811C341.126,-182.1811 393.126,-182.1811 393.126,-182.1811 399.126,-182.1811 405.126,-188.1811 405.126,-194.1811 405.126,-194.1811 405.126,-206.1811 405.126,-206.1811 405.126,-212.1811 399.126,-218.1811 393.126,-218.1811 393.126,-218.1811 341.126,-218.1811 341.126,-218.1811 335.126,-218.1811 329.126,-212.1811 329.126,-206.1811 329.126,-206.1811 329.126,-194.1811 329.126,-194.1811 329.126,-188.1811 335.126,-182.1811 341.126,-182.1811"/>
<text text-anchor="middle" x="367.126" y="-196.4811" font-family="Arial" font-size="14.00" fill="#000000">dir_cntrl9</text>
</g>
<!-- system.ruby.dir_cntrl9&#45;&#45;system.ruby.network.routers09 -->
<g id="edge50" class="edge">
<title>system.ruby.dir_cntrl9&#45;&#45;system.ruby.network.routers09</title>
<path fill="none" stroke="#000000" d="M329.1193,-207.9424C329.0155,-207.9636 328.9121,-207.9847 328.8092,-208.0058"/>
</g>
<!-- system.ruby.dir_cntrl10 -->
<g id="node43" class="node">
<title>system.ruby.dir_cntrl10</title>
<path fill="#e5bcd0" stroke="#000000" d="M322.8074,-332.9367C322.8074,-332.9367 382.8074,-332.9367 382.8074,-332.9367 388.8074,-332.9367 394.8074,-338.9367 394.8074,-344.9367 394.8074,-344.9367 394.8074,-356.9367 394.8074,-356.9367 394.8074,-362.9367 388.8074,-368.9367 382.8074,-368.9367 382.8074,-368.9367 322.8074,-368.9367 322.8074,-368.9367 316.8074,-368.9367 310.8074,-362.9367 310.8074,-356.9367 310.8074,-356.9367 310.8074,-344.9367 310.8074,-344.9367 310.8074,-338.9367 316.8074,-332.9367 322.8074,-332.9367"/>
<text text-anchor="middle" x="352.8074" y="-347.2367" font-family="Arial" font-size="14.00" fill="#000000">dir_cntrl10</text>
</g>
<!-- system.ruby.dir_cntrl10&#45;&#45;system.ruby.network.routers10 -->
<g id="edge51" class="edge">
<title>system.ruby.dir_cntrl10&#45;&#45;system.ruby.network.routers10</title>
<path fill="none" stroke="#000000" d="M345.0466,-332.7152C343.2062,-328.3941 341.243,-323.7845 339.4026,-319.4635"/>
</g>
<!-- system.ruby.dir_cntrl11 -->
<g id="node44" class="node">
<title>system.ruby.dir_cntrl11</title>
<path fill="#e5bcd0" stroke="#000000" d="M363.4652,-451.8524C363.4652,-451.8524 423.4652,-451.8524 423.4652,-451.8524 429.4652,-451.8524 435.4652,-457.8524 435.4652,-463.8524 435.4652,-463.8524 435.4652,-475.8524 435.4652,-475.8524 435.4652,-481.8524 429.4652,-487.8524 423.4652,-487.8524 423.4652,-487.8524 363.4652,-487.8524 363.4652,-487.8524 357.4652,-487.8524 351.4652,-481.8524 351.4652,-475.8524 351.4652,-475.8524 351.4652,-463.8524 351.4652,-463.8524 351.4652,-457.8524 357.4652,-451.8524 363.4652,-451.8524"/>
<text text-anchor="middle" x="393.4652" y="-466.1524" font-family="Arial" font-size="14.00" fill="#000000">dir_cntrl11</text>
</g>
<!-- system.ruby.dir_cntrl11&#45;&#45;system.ruby.network.routers11 -->
<g id="edge52" class="edge">
<title>system.ruby.dir_cntrl11&#45;&#45;system.ruby.network.routers11</title>
<path fill="none" stroke="#000000" d="M381.0248,-451.7177C374.3641,-442.0084 366.1831,-430.0827 359.5173,-420.3657"/>
</g>
<!-- system.ruby.dir_cntrl12 -->
<g id="node45" class="node">
<title>system.ruby.dir_cntrl12</title>
<path fill="#e5bcd0" stroke="#000000" d="M444.2461,-32.5006C444.2461,-32.5006 504.2461,-32.5006 504.2461,-32.5006 510.2461,-32.5006 516.2461,-38.5006 516.2461,-44.5006 516.2461,-44.5006 516.2461,-56.5006 516.2461,-56.5006 516.2461,-62.5006 510.2461,-68.5006 504.2461,-68.5006 504.2461,-68.5006 444.2461,-68.5006 444.2461,-68.5006 438.2461,-68.5006 432.2461,-62.5006 432.2461,-56.5006 432.2461,-56.5006 432.2461,-44.5006 432.2461,-44.5006 432.2461,-38.5006 438.2461,-32.5006 444.2461,-32.5006"/>
<text text-anchor="middle" x="474.2461" y="-46.8006" font-family="Arial" font-size="14.00" fill="#000000">dir_cntrl12</text>
</g>
<!-- system.ruby.dir_cntrl12&#45;&#45;system.ruby.network.routers12 -->
<g id="edge53" class="edge">
<title>system.ruby.dir_cntrl12&#45;&#45;system.ruby.network.routers12</title>
<path fill="none" stroke="#000000" d="M448.4612,-68.7144C441.9083,-73.3433 434.871,-78.3142 428.332,-82.9333"/>
</g>
<!-- system.ruby.dir_cntrl13 -->
<g id="node46" class="node">
<title>system.ruby.dir_cntrl13</title>
<path fill="#e5bcd0" stroke="#000000" d="M456.6796,-131.0789C456.6796,-131.0789 516.6796,-131.0789 516.6796,-131.0789 522.6796,-131.0789 528.6796,-137.0789 528.6796,-143.0789 528.6796,-143.0789 528.6796,-155.0789 528.6796,-155.0789 528.6796,-161.0789 522.6796,-167.0789 516.6796,-167.0789 516.6796,-167.0789 456.6796,-167.0789 456.6796,-167.0789 450.6796,-167.0789 444.6796,-161.0789 444.6796,-155.0789 444.6796,-155.0789 444.6796,-143.0789 444.6796,-143.0789 444.6796,-137.0789 450.6796,-131.0789 456.6796,-131.0789"/>
<text text-anchor="middle" x="486.6796" y="-145.3789" font-family="Arial" font-size="14.00" fill="#000000">dir_cntrl13</text>
</g>
<!-- system.ruby.dir_cntrl13&#45;&#45;system.ruby.network.routers13 -->
<g id="edge54" class="edge">
<title>system.ruby.dir_cntrl13&#45;&#45;system.ruby.network.routers13</title>
<path fill="none" stroke="#000000" d="M460.031,-167.2362C455.3193,-170.4465 450.4149,-173.7882 445.7086,-176.9949"/>
</g>
<!-- system.ruby.dir_cntrl14 -->
<g id="node47" class="node">
<title>system.ruby.dir_cntrl14</title>
<path fill="#e5bcd0" stroke="#000000" d="M484.0188,-257.8821C484.0188,-257.8821 544.0188,-257.8821 544.0188,-257.8821 550.0188,-257.8821 556.0188,-263.8821 556.0188,-269.8821 556.0188,-269.8821 556.0188,-281.8821 556.0188,-281.8821 556.0188,-287.8821 550.0188,-293.8821 544.0188,-293.8821 544.0188,-293.8821 484.0188,-293.8821 484.0188,-293.8821 478.0188,-293.8821 472.0188,-287.8821 472.0188,-281.8821 472.0188,-281.8821 472.0188,-269.8821 472.0188,-269.8821 472.0188,-263.8821 478.0188,-257.8821 484.0188,-257.8821"/>
<text text-anchor="middle" x="514.0188" y="-272.1821" font-family="Arial" font-size="14.00" fill="#000000">dir_cntrl14</text>
</g>
<!-- system.ruby.dir_cntrl14&#45;&#45;system.ruby.network.routers14 -->
<g id="edge55" class="edge">
<title>system.ruby.dir_cntrl14&#45;&#45;system.ruby.network.routers14</title>
<path fill="none" stroke="#000000" d="M471.7315,-282.4266C467.2839,-283.1149 462.8513,-283.8009 458.64,-284.4526"/>
</g>
<!-- system.ruby.dir_cntrl15 -->
<g id="node48" class="node">
<title>system.ruby.dir_cntrl15</title>
<path fill="#e5bcd0" stroke="#000000" d="M494.6911,-395.3663C494.6911,-395.3663 554.6911,-395.3663 554.6911,-395.3663 560.6911,-395.3663 566.6911,-401.3663 566.6911,-407.3663 566.6911,-407.3663 566.6911,-419.3663 566.6911,-419.3663 566.6911,-425.3663 560.6911,-431.3663 554.6911,-431.3663 554.6911,-431.3663 494.6911,-431.3663 494.6911,-431.3663 488.6911,-431.3663 482.6911,-425.3663 482.6911,-419.3663 482.6911,-419.3663 482.6911,-407.3663 482.6911,-407.3663 482.6911,-401.3663 488.6911,-395.3663 494.6911,-395.3663"/>
<text text-anchor="middle" x="524.6911" y="-409.6663" font-family="Arial" font-size="14.00" fill="#000000">dir_cntrl15</text>
</g>
<!-- system.ruby.dir_cntrl15&#45;&#45;system.ruby.network.routers15 -->
<g id="edge56" class="edge">
<title>system.ruby.dir_cntrl15&#45;&#45;system.ruby.network.routers15</title>
<path fill="none" stroke="#000000" d="M482.4233,-398.7842C477.9777,-397.2505 473.5472,-395.722 469.3378,-394.2698"/>
</g>
</g>
</svg>
